<?xml version="1.0" encoding="utf-8"?>
<!-- Generator: Adobe Illustrator 23.1.0, SVG Export Plug-In . SVG Version: 6.00 Build 0)  -->
<svg version="1.1" id="Слой_1" xmlns="http://www.w3.org/2000/svg" xmlns:xlink="http://www.w3.org/1999/xlink" x="0px" y="0px"
	 viewBox="0 0 580 220" style="enable-background:new 0 0 580 220;" xml:space="preserve" width="120" height="45.5">
<style type="text/css">
	.st0{fill:#fff;}
    @media print {
        
    }
</style>
<g id="layer1">
	<path class="st0" d="M160,190v-30h-20h-20v-10v-10h50h50v10v10h-20h-20v20v20h110h110v-30v-30h10h10v40v40H290H160V190z"/>
	<path class="st0" d="M0,110V60h50h50v30v30H60H20v20v20H10H0V110z M80,90V80H50H20v10v10h30h30V90z"/>
	<path class="st0" d="M280,120V80h-20h-20V70V60h50h50v10v10h-20h-20v40v40h-10h-10V120z"/>
	<path class="st0" d="M360,110V60h20h20V40V20H290H180v20v20h20h20v10v10h-50h-50V70V60h20h20V30V0h130h130v30v30h20h20v30v30h-40
		h-40v20v20h-10h-10V110z M440,90V80h-30h-30v10v10h30h30V90z"/>
	<path class="st0" d="M480,120V80h10h10V70V60h30h30v10v10h10h10v40v40h-10h-10v-20v-20h-30h-30v20v20h-10h-10V120z M560,90V80h-30
		h-30v10v10h30h30V90z"/>
	<path class="st0" d="M140,110v-10h50h50v10v10h-50h-50V110z"/>
</g>
</svg>
